<svg width="164" height="30" viewBox="0 0 164 30" fill="none" xmlns="http://www.w3.org/2000/svg">
<g clip-path="url(#clip0_18466_567)">
<path d="M162.204 3.34617C163.008 4.35131 163.612 6.04045 163.738 7.35227C164.093 11.0533 164.08 18.7331 163.746 22.4502C163.217 28.3687 158.276 29.3593 153.233 29.597C147.591 29.8635 140.393 29.8828 134.758 29.5954C129.626 29.3336 125.884 28.3558 124.651 22.8452C123.975 19.825 123.872 9.51508 124.619 6.59761C126.21 0.374108 131.78 0.378925 137.164 0.199092C141.858 0.0417382 147.262 0.0144421 151.947 0.200698C155.378 0.337178 159.89 0.452785 162.204 3.34778V3.34617ZM153.728 8.298C152.63 7.57064 151.32 7.35067 150.021 7.26396C147.337 7.08413 136.898 6.94122 134.957 7.94476C133.613 8.6384 133.215 9.6034 133.082 11.0469C132.901 13.0395 132.907 16.7534 133.072 18.7556C133.3 21.4997 134.867 22.4711 137.487 22.6895C140.141 22.911 150.227 23.017 152.378 22.3186C153.204 22.0504 154.299 21.4178 154.656 20.5828C155.258 19.1731 155.245 12.7746 155.052 11.0613C154.949 10.1461 154.518 8.82305 153.726 8.298H153.728Z" fill="#50B848"/>
<path d="M0 0.205531C8.67019 0.443168 17.4287 -0.110782 26.0924 0.199109C39.532 0.679199 39.4613 5.97464 39.0167 18.1166C38.6651 27.7457 35.5332 29.3321 26.253 29.756C17.6133 30.1509 8.67019 29.4477 0 29.7495V16.5832H8.82911V22.4438L9.06991 22.6847H24.6413C25.3524 22.6847 26.9721 22.325 27.6432 21.9942C29.9403 20.8622 29.9146 18.7797 30.0158 16.4997C30.096 14.7142 30.1009 10.676 29.3094 9.17952C28.7733 8.16635 26.688 7.43096 25.6044 7.43096H8.90938C8.87406 7.43096 8.7344 7.19493 8.67019 7.2704C8.58511 7.48877 8.82911 7.63809 8.82911 7.67181V13.5324H0V0.205531Z" fill="#50B848"/>
<path d="M120.397 10.8028H111.568C111.446 8.4104 110.616 7.60918 108.283 7.42453C105.94 7.23988 95.6996 7.10501 93.9113 7.6718C92.9818 7.96724 92.0363 9.00771 91.8629 9.95825C91.4793 12.0488 91.5419 17.0697 91.8372 19.218C92.1455 21.4563 93.9562 22.4743 96.08 22.6814C98.4687 22.9143 107.877 22.9705 109.836 22.3186C111.708 21.6972 111.915 20.3324 111.887 18.51H120.716V22.9255C120.716 23.2691 120.156 25.122 119.986 25.5668C118.764 28.7942 115.425 29.552 112.293 29.7543C106.913 30.1012 99.2232 30.0594 93.8198 29.7543C89.7969 29.5279 85.7371 28.746 83.8397 24.8041C82.4447 21.9075 82.557 12.5706 82.8251 9.11047C83.4062 1.5912 88.8145 0.500962 95.2645 0.197494C99.6085 -0.00642366 112.3 -0.345216 115.897 0.92646C120.307 2.48555 120.119 6.91072 120.394 10.7996L120.397 10.8028Z" fill="#50B848"/>
<path d="M51.3694 0.205536V17.1452C51.3694 17.6172 51.6567 19.2614 51.7996 19.7656C52.164 21.0373 52.9089 21.7919 54.1498 22.2319C56.1339 22.9335 66.2521 22.9721 68.2266 22.2865C69.3696 21.8899 70.6313 20.4785 70.6313 19.2325V0.205536H79.4604C79.1939 6.8433 79.8136 13.7572 79.4685 20.3645C79.1169 27.0874 75.741 29.3883 69.2732 29.756C64.215 30.0434 57.1324 30.0642 52.0838 29.756C47.1892 29.4573 42.6992 26.4082 42.6992 20.9987V0.205536H51.3678H51.3694Z" fill="#50B848"/>
</g>
<defs>
<clipPath id="clip0_18466_567">
<rect width="164" height="30" fill="white"/>
</clipPath>
</defs>
</svg>
